#N canvas 780 184 842 398 12;
#X obj 387 213 dac~;
#X obj 268 75 osc~ 220;
#X obj 297 148 *~;
#X obj 388 81 osc~ 2;
#X obj 388 130 *~ 0.5;
#X obj 389 164 +~ 2;
#X connect 1 0 2 0;
#X connect 2 0 0 0;
#X connect 2 0 0 1;
#X connect 3 0 4 0;
#X connect 4 0 5 0;
#X connect 5 0 2 1;
